# xmcd
#
# Track frame offsets:
#	150
#	13483
#	32863
#	49317
#	62575
#
# Disc length: 1100 seconds
#
# Revision: 0
# Processed by: cddbd v1.4PL0 Copyright (c) Steve Scherf et al.
# Submitted via: EasyCDDAExtractor 5.0.4.1
#
DISCID=43044a05
DTITLE=Devil Ate My Son - Where Ghosts Roam
DYEAR=2003
DGENRE=Metal
TTITLE0=Leaves Had Fallen In Early Month's
TTITLE1=Monolith
TTITLE2=Pathetic Icons
TTITLE3=Twentyfour Hours
TTITLE4=Concrete Playgrounds
EXTD=
EXTT0=
EXTT1=
EXTT2=
EXTT3=
EXTT4=
PLAYORDER=
